<svg width="40" height="40" viewBox="0 0 40 40" fill="none" xmlns="http://www.w3.org/2000/svg">
<circle cx="20" cy="20" r="20" fill="#FF6600"/>
<path d="M16.8 16.2002H13.6V12.9002C13.6 12.5002 13.3 12.1002 12.8 12.1002C12.3 12.1002 12.1 12.5002 12.1 12.9002V16.2002H8.8C8.4 16.2002 8 16.5002 8 17.0002C8 17.5002 8.3 17.8002 8.8 17.8002H12.1V21.1002C12.1 21.5002 12.4 21.9002 12.9 21.9002C13.4 21.9002 13.7 21.6002 13.7 21.1002V17.7002H17C17.4 17.7002 17.8 17.4002 17.8 16.9002C17.8 16.4002 17.3 16.2002 16.8 16.2002V16.2002ZM31.8 11.3002V11.2002H31.7C31.6 11.2002 22.5 12.4002 17.3 22.9002C13.5 30.5002 13.7 32.8002 14 32.8002C14.3 32.9002 17.4 26.3002 20.7 23.6002C25.9 22.5002 27.3 20.0002 27.3 20.0002C27.3 20.0002 25.8 20.2002 25.2 20.2002C24.4 20.2002 23.8 20.0002 23.5 19.9002C24.8 18.7002 25.9 18.4002 27 18.2002C27.9 18.0002 28.8 17.8002 30 17.0002C32.2 15.4002 31.9 11.5002 31.8 11.3002V11.3002Z" fill="white"/>
</svg>
